<?xml version="1.0" encoding="UTF-8" standalone="no"?>
<svg
   xmlns:dc="http://purl.org/dc/elements/1.1/"
   xmlns:cc="http://creativecommons.org/ns#"
   xmlns:rdf="http://www.w3.org/1999/02/22-rdf-syntax-ns#"
   xmlns:svg="http://www.w3.org/2000/svg"
   xmlns="http://www.w3.org/2000/svg"
   xmlns:sodipodi="http://sodipodi.sourceforge.net/DTD/sodipodi-0.dtd"
   xmlns:inkscape="http://www.inkscape.org/namespaces/inkscape"
   version="1.1"
   id="svg2"
   viewBox="0 0 200 40.000001"
   height="40"
   width="200"
   inkscape:version="0.91 r13725"
   sodipodi:docname="logo.svg">
  <sodipodi:namedview
     pagecolor="#ffffff"
     bordercolor="#666666"
     borderopacity="1"
     objecttolerance="10"
     gridtolerance="10"
     guidetolerance="10"
     inkscape:pageopacity="0"
     inkscape:pageshadow="2"
     inkscape:window-width="1737"
     inkscape:window-height="809"
     id="namedview12"
     showgrid="false"
     inkscape:zoom="2.09"
     inkscape:cx="-14.114833"
     inkscape:cy="20"
     inkscape:window-x="0"
     inkscape:window-y="30"
     inkscape:window-maximized="0"
     inkscape:current-layer="svg2" />
  <defs
     id="defs4" />
  <metadata
     id="metadata7">
    <rdf:RDF>
      <cc:Work
         rdf:about="">
        <dc:format>image/svg+xml</dc:format>
        <dc:type
           rdf:resource="http://purl.org/dc/dcmitype/StillImage" />
        <dc:title />
      </cc:Work>
    </rdf:RDF>
  </metadata>
  <path
     inkscape:connector-curvature="0"
     id="path3360"
     style="font-style:normal;font-variant:normal;font-weight:normal;font-stretch:normal;font-size:30.67907715px;line-height:125%;font-family:GardensC;-inkscape-font-specification:'GardensC, Normal';text-align:start;letter-spacing:3px;word-spacing:0px;writing-mode:lr-tb;text-anchor:start;fill:#ffffff;fill-opacity:1;stroke:none;stroke-width:1px;stroke-linecap:butt;stroke-linejoin:miter;stroke-opacity:1"
     d="m 16.38823,1.5701 q 5.44746,0 9.0791,3.0918 3.58259,3.0427 3.58259,8.1466 0,5.104 -3.63165,8.343 -3.63165,3.19 -9.03004,3.19 -2.25753,0 -6.8706902,0 -0.58893,0 -0.58893,0.5889 0,3.9261 0,11.7783 0,0.6871 -0.44168,1.1288 -0.4907699,0.4416 -1.1287599,0.4416 -0.0491,0 -0.14726,0 -0.63799,0 -1.12875,-0.4416 -0.4416901,-0.4417 -0.4416901,-1.1288 0,-4.1715 0,-12.5635 0,-5.2512 0,-21.0047 0,-0.638 0.4416901,-1.0797 0.49076,-0.4907 1.12875,-0.4907 3.0427401,0 9.1772901,0 z m 0,19.5323 q 4.07332,0 6.77253,-2.2575 2.69919,-2.2084 2.69919,-6.0364 0,-3.7788 -2.65013,-5.8891 -2.69919,-2.1103 -6.82159,-2.1103 -2.25753,0 -6.8706902,0 -0.58893,0 -0.58893,0.5398 0,5.0549 0,15.1646 0,0.5889 0.53985,0.5889 2.3065902,0 6.9197702,0 z" />
  <path
     inkscape:connector-curvature="0"
     id="path3362"
     style="font-style:normal;font-variant:normal;font-weight:normal;font-stretch:normal;font-size:30.67907715px;line-height:125%;font-family:GardensC;-inkscape-font-specification:'GardensC, Normal';text-align:start;letter-spacing:3px;word-spacing:0px;writing-mode:lr-tb;text-anchor:start;fill:#ffffff;fill-opacity:1;stroke:none;stroke-width:1px;stroke-linecap:butt;stroke-linejoin:miter;stroke-opacity:1"
     d="m 53.05479,2.5516 q 3.53349,8.392 14.0849,33.5191 0.14727,0.2454 0.14727,0.5399 0,0.2944 -0.14727,0.6379 -0.24537,0.638 -0.8343,0.8343 -0.0491,0 -0.0981,0.049 -0.29444,0.098 -0.58891,0.098 -0.29446,0.049 -0.63799,-0.098 -0.58892,-0.2453 -0.83429,-0.7852 -3.68075,-8.8337 -3.87705,-9.2754 -0.29445,-0.638 -1.2269,-0.638 -5.00578,0 -15.01736,0 -0.83429,0 -1.17783,0.7852 -1.27598,3.0428 -3.82795,9.1282 -0.24538,0.5399 -0.88337,0.7852 -0.58891,0.2454 -1.17783,0 -0.0491,0 -0.0981,-0.049 -0.63799,-0.1963 -0.88338,-0.8343 -0.0981,-0.2944 -0.0981,-0.5889 0,-0.2944 0.0981,-0.5889 4.71132,-11.1894 14.08491,-33.5191 0.34354,-0.9815 1.52137,-0.9815 1.12876,0 1.47229,0.9815 z m -8.24483,20.9556 q -0.0491,0.1472 -0.0491,0.2454 0,0.3926 0.63799,0.3926 4.12243,0 12.36724,0 0.49077,0 0.63799,-0.1473 0,-0.098 0,-0.1963 0.0491,-0.1473 -0.0981,-0.4417 -0.0981,-0.1963 -1.32506,-3.1899 -1.2269,-2.9937 -2.84642,-6.8217 -1.61952,-3.877 -2.11028,-5.1039 -0.1963,-0.4908 -0.34353,-0.5889 -0.0491,-0.049 -0.0981,-0.049 -0.0981,0 -0.14726,0.049 -0.14726,0.098 -0.34354,0.5889 -0.58891,1.1288 -1.66858,3.7298 -1.07968,2.6011 -2.01215,5.0549 -0.98152,2.4047 -1.81583,4.4168 -0.78521,2.0122 -0.78521,2.0612 z" />
  <path
     inkscape:connector-curvature="0"
     id="path3364"
     style="font-style:normal;font-variant:normal;font-weight:normal;font-stretch:normal;font-size:30.67907715px;line-height:125%;font-family:GardensC;-inkscape-font-specification:'GardensC, Normal';text-align:start;letter-spacing:3px;word-spacing:0px;writing-mode:lr-tb;text-anchor:start;fill:#ffffff;fill-opacity:1;stroke:none;stroke-width:1px;stroke-linecap:butt;stroke-linejoin:miter;stroke-opacity:1"
     d="m 109.12756,34.991 q 0.63799,0 1.12876,0.4908 0.44169,0.4417 0.44169,1.0797 0,0.049 0,0.1472 0,0.6871 -0.44169,1.1288 -0.49077,0.4417 -1.12876,0.4417 -11.28755,0 -33.91175,0 -0.63799,0 -1.12875,-0.4417 -0.44169,-0.4417 -0.44169,-1.1288 0,-0.049 0,-0.1472 0,-0.638 0.44169,-1.0797 0.49076,-0.4908 1.12875,-0.4908 0.29447,0 0.88338,0 0.93245,0 1.37413,-0.9815 4.41689,-10.5023 13.20154,-31.4579 0.3926,-0.9815 1.52138,-0.9815 1.12876,0 1.47228,0.9815 12.90708,30.7708 13.20154,31.3598 0.44168,1.0796 1.37413,1.0796 0.29447,0 0.88337,0 z m -6.52715,0 q 0.8343,0 0.8343,-0.5889 0,-0.2454 -0.14726,-0.5889 -0.88338,-2.1594 -3.386274,-8.2448 Q 97.44737,19.4829 95.33709,14.379 93.27588,9.226 93.12866,8.8824 92.3925,7.2629 92.24528,7.2629 q -0.0491,0 -0.0491,0 -0.14726,0 -0.44169,0.5889 -0.14726,0.3436 -0.49075,1.1288 -0.19632,0.3926 -2.15938,5.2512 -1.96306,4.8585 -4.66224,11.2875 -2.60104,6.429 -3.28811,8.1467 -0.1963,0.4417 -0.1963,0.7361 0,0.5889 0.83429,0.5889 6.91976,0 20.80835,0 z" />
  <path
     inkscape:connector-curvature="0"
     style="font-style:normal;font-variant:normal;font-weight:normal;font-stretch:normal;font-size:30.67907715px;line-height:125%;font-family:GardensC;-inkscape-font-specification:'GardensC, Normal';text-align:start;letter-spacing:3px;word-spacing:0px;writing-mode:lr-tb;text-anchor:start;fill:#ffffff;fill-opacity:1;stroke:none;stroke-width:1px;stroke-linecap:butt;stroke-linejoin:miter;stroke-opacity:1"
     d="m 120.64037,1.5694 c -0.42531,0 -0.80219,0.1656 -1.12937,0.4927 -0.29444,0.2945 -0.44149,0.6529 -0.44149,1.0782 l 0,20.9556 0,12.5638 c 0,0.2618 0.098,0.5559 0.29432,0.8831 0.16366,0.2944 0.39341,0.4905 0.68788,0.5886 0.29445,0.098 0.55481,0.1472 0.78383,0.1472 0.49075,0 0.90137,-0.2113 1.22854,-0.6367 4.71953,-6.8597 7.55582,-10.9753 10.6186,-15.4208 l 0,-5.8131 c -3.39087,4.9325 -7.07164,10.2865 -9.0989,13.2324 -0.81795,1.2105 -1.22535,1.0145 -1.22535,-0.5887 l 0,-25.9114 c 0,-0.4253 -0.14711,-0.7837 -0.44151,-1.0782 -0.32717,-0.3271 -0.70406,-0.4927 -1.12938,-0.4927 l -0.14717,0 z"
     id="path3366" />
  <path
     inkscape:connector-curvature="0"
     id="path3368"
     style="font-style:normal;font-variant:normal;font-weight:normal;font-stretch:normal;font-size:30.67907715px;line-height:125%;font-family:GardensC;-inkscape-font-specification:'GardensC, Normal';text-align:start;letter-spacing:3px;word-spacing:0px;writing-mode:lr-tb;text-anchor:start;fill:#b2436d;fill-opacity:1;stroke:none;stroke-width:1px;stroke-linecap:butt;stroke-linejoin:miter;stroke-opacity:1"
     d="m 146.43544,38.2791 q -0.0491,0 -0.14726,0 -0.63799,0 -1.07968,-0.4416 -0.49076,-0.4417 -0.49076,-1.1288 0,-8.7356 0,-26.2068 0,-2.1593 -1.07968,-0.4416 0,0 -1.61951,2.2575 -1.57046,2.2575 -4.41689,6.2818 -0.0491,-1.5705 -0.0491,-2.6992 0,-1.0797 0,-2.7483 0.53984,-0.7853 1.07967,-1.6195 0.58893,-0.7853 1.96305,-2.7974 0.73617,-1.1288 1.81584,-2.6501 1.07968,-1.5705 2.60104,-3.7789 0.49077,-0.7361 1.17784,-0.7361 0.34354,0 0.73614,0.1963 1.07968,0.4417 1.07968,1.4232 0,5.5947 0,16.7841 0,4.1715 0,16.735 0,0.6871 -0.44169,1.1288 -0.44168,0.4416 -1.12875,0.4416 z" />
  <path
     inkscape:connector-curvature="0"
     id="path3370"
     style="font-style:normal;font-variant:normal;font-weight:normal;font-stretch:normal;font-size:30.67907715px;line-height:125%;font-family:GardensC;-inkscape-font-specification:'GardensC, Normal';text-align:start;letter-spacing:3px;word-spacing:0px;writing-mode:lr-tb;text-anchor:start;fill:#b2436d;fill-opacity:1;stroke:none;stroke-width:1px;stroke-linecap:butt;stroke-linejoin:miter;stroke-opacity:1"
     d="m 177.13868,0.9811 q 7.80315,0 13.15245,5.5457 5.34934,5.4965 5.34934,13.4469 0,7.9013 -5.34934,13.4469 -5.3493,5.4965 -13.15245,5.4965 -7.90128,0 -13.44692,-5.5456 -5.54561,-5.5456 -5.54561,-13.3978 0,-7.9013 5.54561,-13.4469 5.54564,-5.5457 13.44692,-5.5457 z m 0.19631,34.9424 q 6.42901,0 10.84586,-4.7113 4.41687,-4.7114 4.41687,-11.2876 0,-6.6253 -4.36779,-11.2876 -4.41686,-4.6622 -10.89494,-4.6622 -6.52715,0 -11.14034,4.6622 -4.66224,4.7114 -4.66224,11.2876 0,6.5272 4.66224,11.2876 4.66227,4.7113 11.14034,4.7113 z" />
</svg>
